<?xml version="1.0" encoding="utf-8"?>
<!-- Generator: Adobe Illustrator 28.2.0, SVG Export Plug-In . SVG Version: 6.00 Build 0)  -->
<svg version="1.1" id="Capa_1" xmlns="http://www.w3.org/2000/svg" xmlns:xlink="http://www.w3.org/1999/xlink" x="0px" y="0px"
	 viewBox="0 0 612 792" style="enable-background:new 0 0 612 792;" xml:space="preserve">
<style type="text/css">
	.st0{fill:none;stroke:#000000;stroke-miterlimit:10;}
</style>
<g>
	<g>
		<path d="M465.25,293.3c-3.23-7.01-7.52-14.59-14.91-17.86c-5.9-2.62-14.03-1.79-18.43,3.3c-6.29,7.28-0.75,16.57,3.27,23.45
			c4.09,7.01,9.11,13.96,16.77,17.32c13.6,5.96,30.32,0.68,39.86-10.2c5.44-6.2,9-13.82,10.94-21.8c1.93-7.94,2.66-16.58,1.74-24.72
			c-0.51-4.55-1.77-9.17-5.09-12.5c-3-3.01-7.32-4.46-11.53-4.38c-9.52,0.16-16.62,7.55-20.21,15.79c1.52,0.2,3.05,0.4,4.57,0.6
			c-5.98-15.96-14.64-34.15-32.88-38.46c-7.75-1.83-15.79-0.18-22.13,4.67c-6.26,4.79-10.28,12.09-10.4,20.04
			c-0.13,8.73,4.12,17.07,11.15,22.18c0.2-1.52,0.4-3.05,0.6-4.57c-21.14,7.33-38.44,26.28-38,49.53
			c0.21,11.13,4.47,22.3,12.75,29.93c8.39,7.74,20.24,11.75,31.6,10.32c12.51-1.56,23.87-9.29,29.92-20.36
			c-1.52-0.64-3.05-1.28-4.57-1.93c-3.35,8.99,1.74,18.68,9.15,23.88c9.29,6.52,21.92,5.07,32.06,1.59
			c10.77-3.7,20.79-9.62,29.4-17.05c7.69-6.63,14.64-15.32,15.63-25.77c0.92-9.75-4.99-20.85-15.07-22.97
			c-0.22,1.64-0.44,3.27-0.66,4.91c14.59,0.87,26.32-11.7,29.71-25c4.29-16.82-3.89-34.09-12.52-48.08
			c-16.99-27.52-41.61-53.54-75.18-58.3c-8.12-1.15-16.38-0.99-24.4,0.84c-8.1,1.85-15.78,5.4-22.81,9.78
			c-13.7,8.54-25.94,20-36.49,32.17c-20.86,24.08-35.35,54.26-35.12,86.6c0.11,15.65,3.57,31.35,10.82,45.26
			c7.08,13.59,18.9,28.57,35.59,29.02c4,0.11,7.91-0.77,11.48-2.58c-1.01-1.31-2.02-2.62-3.03-3.93
			c-14.48,11.75-23.59,28.38-32.42,44.46c-9.68,17.62-20.25,34.67-32.2,50.86c-6.85,9.28-14.1,18.25-21.7,26.92
			c-2.11,2.4,1.2,5.8,3.54,3.54c14.93-14.46,29.93-29.03,46.82-41.24c4.09-2.96,8.28-5.81,12.61-8.41c4.24-2.55,8.7-4.8,13.56-5.87
			c10.11-2.21,19.52,2.96,28.42,7.02c9.68,4.42,21.12,7.98,31.2,2.68c-1.01-1.31-2.02-2.62-3.03-3.93
			c-14.61,16.88-32.81,30.39-53.09,39.69c-10.1,4.63-20.72,8.14-31.57,10.5c-10.72,2.33-21.58,2.9-32.44,4.21
			c-11.86,1.44-23.93,4.2-32.84,12.71c-2.33,2.23,1.21,5.76,3.54,3.54c7.6-7.27,18.12-9.81,28.26-11.11
			c10.92-1.4,21.89-1.88,32.7-4.08c21.87-4.44,42.83-13.61,61-26.55c10.29-7.33,19.71-15.82,27.98-25.37
			c1.84-2.13-0.44-5.29-3.03-3.93c-8.69,4.57-19.03,0.61-27.23-3.18c-9.15-4.23-18.54-8.9-28.92-7.43
			c-10.07,1.43-19.02,7.7-27.15,13.41c-8.52,5.98-16.6,12.56-24.39,19.45c-8.88,7.85-17.41,16.1-25.92,24.34
			c1.18,1.18,2.36,2.36,3.54,3.54c13.58-15.5,26.05-31.97,37.24-49.28c5.4-8.35,10.48-16.91,15.29-25.61
			c4.49-8.13,8.85-16.34,13.86-24.16c5.53-8.64,11.93-16.7,19.92-23.19c2.31-1.87-0.63-5.14-3.03-3.93
			c-6.88,3.48-15.09,1.85-21.4-2.07c-6.28-3.89-11.11-9.9-15.05-16.05c-7.88-12.3-12.33-26.6-13.55-41.12
			c-2.53-30.13,8.55-59.09,26.54-82.9c9.08-12.02,19.91-22.88,31.7-32.25c12.16-9.66,26.32-17.34,42.13-18.07
			c15.38-0.72,30.63,4.27,43.51,12.5c12.96,8.28,23.67,19.77,32.58,32.21c4.56,6.37,8.85,13.01,12.53,19.93
			c3.76,7.07,6.9,14.69,7.92,22.69c0.9,7.06,0.04,14.16-3.32,20.49c-2.92,5.49-7.48,10.44-13.32,12.84
			c-2.83,1.16-5.8,1.61-8.84,1.43c-2.79-0.17-3.43,4.33-0.66,4.91c7.29,1.54,11.45,9.07,11.49,16.13
			c0.05,8.82-5.9,16.53-12.03,22.27c-7.16,6.71-15.67,12.1-24.69,15.94c-8.95,3.8-19.77,6.64-29.19,2.81
			c-7.67-3.11-13.66-12.08-10.59-20.32c1-2.67-3.23-4.38-4.57-1.93c-4.75,8.7-13.13,15.07-22.78,17.34
			c-9.86,2.31-20.57-0.28-28.59-6.37c-7.9-6-12.55-15.5-13.42-25.29c-0.9-10.1,1.89-19.98,7.68-28.28
			c6.38-9.13,16.02-15.85,26.48-19.48c2.14-0.74,2.35-3.29,0.6-4.57c-5.16-3.75-8.36-10.07-8.65-16.41
			c-0.3-6.45,2.46-12.4,7.29-16.63c5.01-4.4,11.85-6.22,18.37-4.81c6.99,1.51,13,5.86,17.54,11.27c5.78,6.9,9.24,15.47,12.36,23.81
			c0.66,1.76,3.62,2.77,4.57,0.6c2.62-6.02,7.21-12.13,14.15-13.18c2.94-0.44,6.15,0.07,8.6,1.81c2.69,1.91,3.89,5.09,4.49,8.22
			c0.65,3.36,0.64,6.88,0.56,10.29c-0.08,3.55-0.37,7.11-0.98,10.61c-1.2,6.87-3.45,13.57-7.26,19.45
			c-6.71,10.36-19.42,17.48-31.97,15.23c-6.47-1.16-11.62-4.85-15.57-10.03c-2.23-2.93-4.08-6.15-5.9-9.35
			c-1.87-3.3-4.24-7.03-4.1-10.98c0.24-6.28,7.73-8.29,12.83-6.83c7.21,2.07,11.19,10.11,14.07,16.37
			C462.28,298.74,466.6,296.2,465.25,293.3L465.25,293.3z"/>
	</g>
</g>
<g>
	<g>
		<path d="M147.21,305.81c2.01-6.13,4.67-13.2,10.46-16.75c3.94-2.42,10.44-2.66,13.62,1.19c2.17,2.62,1.64,6.26,0.72,9.27
			c-1.09,3.58-2.7,7.07-4.29,10.45c-2.94,6.22-6.76,12.06-13.07,15.22c-11.07,5.54-25.37,1.75-34.04-6.47
			c-10.1-9.58-14.49-23.9-15.46-37.46c-0.28-3.88-0.37-8.2,1.64-11.68c1.68-2.9,4.77-4.57,8.05-4.96
			c7.73-0.92,13.89,4.94,17.49,11.15c1.06,1.83,4.05,1.5,4.57-0.6c3.57-14.35,8.62-30.58,23.03-37.48
			c6.01-2.88,13.01-2.96,18.97,0.09c5.9,3.02,10.22,8.39,11.43,14.95c1.33,7.18-1.38,14.87-6.72,19.77c-1.35,1.24-0.7,3.78,1.1,4.18
			c19.31,4.29,36.94,18.88,39.4,39.37c1.18,9.86-1.11,20.41-7.59,28.12c-6.4,7.62-16.07,12.41-26.06,12.56
			c-11.15,0.16-22.18-5.47-28.61-14.57c-1.84-2.61-5.8-0.38-4.32,2.52c3.48,6.81-0.37,15.19-6.01,19.54
			c-7.61,5.87-18.45,5.28-27.29,3.22c-9.93-2.32-19.4-6.51-27.89-12.15c-7.26-4.83-14.47-11.3-16.83-20.01
			c-2-7.39,0.9-17.36,8.78-19.98c3.09-1.03,1.82-5.38-1.33-4.82c-12.97,2.29-24.4-9.36-27.64-20.98
			c-4.42-15.83,2.68-32.69,9.6-46.68c13.43-27.14,34.16-53.27,65.1-60.37c7.16-1.64,14.66-2.1,21.94-1.04
			c7.89,1.15,15.47,3.89,22.57,7.47c13.54,6.82,26.06,16.17,37.16,26.44c21.62,20,38.37,46.03,42.34,75.64
			c1.97,14.73,0.84,29.93-4.01,44.01c-4.52,13.13-13.06,29.17-27.96,32.14c-3.5,0.7-7.04,0.41-10.38-0.83
			c-2.75-1.02-4.22,3.11-1.93,4.57c15.55,9.9,26.21,25.36,36.7,40.13c11.64,16.4,24.17,32.1,37.92,46.79
			c7.87,8.41,16.1,16.49,24.63,24.23c1.01-1.31,2.02-2.62,3.03-3.93c-16.51-12.66-33.1-25.39-51.26-35.64
			c-9-5.08-18.77-10.6-29.17-11.9c-10.12-1.27-19.03,3.36-27.4,8.48c-8.86,5.42-19.56,12.33-30.29,8.17
			c-2.36-0.91-4.2,2.56-2.43,4.18c16.61,15.24,36.41,26.79,57.78,33.93c10.6,3.54,21.56,5.94,32.66,7.21
			c11.04,1.27,22,0.83,33.07,0.74c11.69-0.09,23.98,0.67,33.64,7.99c1.08,0.82,2.79,0.16,3.42-0.9c0.76-1.27,0.17-2.61-0.9-3.42
			c-8.53-6.46-19.3-8.27-29.74-8.61c-10.89-0.36-21.75,0.59-32.64-0.17c-22.1-1.55-43.86-8.02-63.31-18.6
			c-10.99-5.98-21.23-13.25-30.45-21.71c-0.81,1.39-1.62,2.79-2.43,4.18c9.39,3.64,19.62-0.16,27.88-4.89
			c8.03-4.59,16.06-11.09,25.65-11.76c10.24-0.71,20.11,4.85,28.82,9.57c9.15,4.95,17.91,10.58,26.43,16.54
			c9.58,6.7,18.87,13.82,28.14,20.93c2.25,1.73,5.11-2.04,3.03-3.93c-15.21-13.79-29.41-28.67-42.44-44.53
			c-6.38-7.77-12.44-15.79-18.27-23.98c-5.4-7.59-10.72-15.24-16.65-22.43c-6.62-8.03-14.09-15.38-22.9-21
			c-0.64,1.52-1.28,3.05-1.93,4.57c7.69,2.85,16.52,1.02,23.23-3.43c6.62-4.39,11.48-10.9,15.26-17.8
			c7.75-14.12,11.28-30.31,11.08-46.35c-0.4-32.11-15.45-61.65-37.35-84.52c-10.98-11.46-23.63-21.56-37.19-29.8
			c-14.23-8.64-30.28-14.63-47.15-13.1c-16.36,1.48-31.73,8.77-44.25,19.23c-12.51,10.45-22.19,23.97-29.92,38.23
			c-8.03,14.82-16.19,31.88-14.91,49.19c1.06,14.25,10.36,28.92,24.97,32.31c3.37,0.78,6.74,0.81,10.14,0.21
			c-0.44-1.61-0.89-3.21-1.33-4.82c-8.75,2.92-13.48,12.23-13.05,21.11c0.51,10.45,7.8,18.95,15.73,25.03
			c9.1,6.98,19.8,12.06,30.86,15.03c10.41,2.8,22.88,3.83,32.37-2.31c8.74-5.65,13.97-17.43,8.97-27.19
			c-1.44,0.84-2.88,1.68-4.32,2.52c6.6,9.35,16.9,15.45,28.26,16.8c11.22,1.34,22.77-2.81,31.04-10.4
			c8.36-7.67,12.61-18.82,12.58-30.07c-0.03-11.33-4.29-22.17-11.65-30.72c-8.12-9.43-19.63-15.76-31.71-18.44
			c0.37,1.39,0.74,2.79,1.1,4.18c5.69-5.23,8.81-13.06,8.46-20.77c-0.35-7.87-4.31-14.9-10.61-19.56
			c-6.43-4.76-14.76-6.39-22.48-4.27c-7.76,2.13-14.26,7.48-18.95,13.88c-6.12,8.36-9.02,18.62-11.49,28.53
			c1.52-0.2,3.05-0.4,4.57-0.6c-4.06-7-10.6-13.06-19.01-13.66c-8.01-0.58-15.24,4.34-17.01,12.28c-0.94,4.23-0.65,8.63-0.15,12.89
			c0.47,4.06,1.18,8.09,2.24,12.04c2.11,7.78,5.56,15.21,10.66,21.48c9.39,11.54,25.94,17.89,40.39,12.68
			c7.85-2.83,13.32-8.82,17.1-16.11c1.98-3.81,3.72-7.83,5.23-11.85c1.55-4.13,2.51-8.76,0.77-13c-2.97-7.25-12.26-9.17-19.04-6.55
			c-8.71,3.37-12.74,12.79-15.44,21.03C141.38,307.54,146.21,308.86,147.21,305.81L147.21,305.81z"/>
	</g>
</g>
<g>
	<g>
		<path d="M302.69,123.53c-3.46,0.01-7.47,0.61-9.88,3.36c-2.77,3.16-2.17,7.52,0.36,10.62c2.74,3.37,7.24,4.15,11.34,4.29
			c3.85,0.13,8.21,0.21,11.46-2.19c3.25-2.4,4.55-6.54,5.24-10.36c0.67-3.7,0.74-7.4,0.23-11.12c-0.97-6.99-4.43-13.89-10.29-18.03
			c-3.16-2.23-8.02-3.37-11.27-0.69c-4.04,3.34-1.96,8.8,0.43,12.42c1.44-0.84,2.88-1.68,4.32-2.52
			c-4.86-6.47-13.38-9.86-21.41-9.34c-3.72,0.24-7.64,1.41-10.04,4.44c-2.83,3.57-2.58,8.36-0.51,12.24
			c2.35,4.39,6.94,6.93,11.19,9.15c0.64-1.52,1.28-3.05,1.93-4.57c-6.09-1.92-12.88-0.41-17.9,3.44
			c-5.36,4.11-8.18,10.66-8.01,17.37c0.36,13.76,12.9,24.31,26.37,24.08c7.03-0.12,14.25-3.23,17.84-9.51
			c-1.55-0.42-3.11-0.84-4.66-1.26c0.11,6.77,4.9,12.49,10.9,15.19c6.16,2.77,13.58,3.58,20.25,2.58
			c6.76-1.01,12.21-4.94,14.85-11.29c2.32-5.59,2.48-12.08,0.73-17.86c-1.87-6.17-5.99-11.84-12.01-14.48
			c-0.64,1.52-1.28,3.05-1.93,4.57c6.99,1.25,15.18,2.04,20.25-4.06c4.46-5.38,5.34-13.16,4.78-19.9
			c-0.61-7.36-3.1-14.69-7.53-20.64c-4.11-5.53-9.9-10.15-16.91-11.08c-6.94-0.93-14.68,2.13-17.94,8.58c1.44,0,2.88,0,4.32,0
			c-6.32-9.6-17.02-14.93-28.13-16.82c-5.67-0.96-11.52-1.26-17.24-0.67c-5.6,0.58-11.56,2.18-14.92,7.08
			c-4.66,6.79-0.58,15.28,3.12,21.45c0.72-1.25,1.44-2.51,2.16-3.76c-7.21-0.82-15.07,1.63-20.08,6.99
			c-4.81,5.14-6.39,12.71-3.87,19.33c1.38,3.62,3.8,6.74,7.23,8.62c0.2-1.52,0.4-3.05,0.6-4.57c-6.63,2.79-9.74,9.22-10.39,16.1
			c-0.66,6.94,1.49,14.03,4.86,20.04c7.04,12.57,20.5,21.52,34.96,22.39c7.03,0.42,16.42-2.34,17.97-10.25
			c0.26-1.32-0.38-2.7-1.75-3.08c-1.27-0.35-2.77,0.43-3.08,1.75c-5.03,21.43-4.75,43.59-3.19,65.42
			c0.45,6.23,0.99,12.45,1.54,18.67c0.12,1.34,1.06,2.5,2.5,2.5c1.35,0,2.5-1.14,2.5-2.5c-0.03-11.09,0.49-25.44,11.79-31.27
			c5.17-2.67,11.16-3.27,16.48-5.63c4.78-2.11,9.1-5.37,12.55-9.29c4.01-4.57,6.95-10.05,8.36-15.99c-1.64-0.22-3.27-0.44-4.91-0.66
			c-1.48,11.67-3.12,23.81-9.49,33.98c-5.65,9.02-14.1,15.82-21.56,23.25c-4.33,4.31-8.41,8.93-11.62,14.15
			c-1.69,2.75,2.63,5.26,4.32,2.52c5.73-9.32,14.35-16.28,22.01-23.93c3.86-3.85,7.54-7.94,10.55-12.51
			c3.31-5.03,5.6-10.67,7.16-16.47c1.85-6.87,2.74-13.95,3.63-21c0.36-2.81-4.27-3.37-4.91-0.66c-2.34,9.87-9.45,18.48-18.86,22.4
			c-5.55,2.31-11.68,2.92-16.97,5.92c-5.18,2.93-8.69,7.93-10.8,13.4c-2.66,6.9-2.75,14.5-2.73,21.79c1.67,0,3.33,0,5,0
			c-1.9-21.53-3.8-43.27-1.54-64.85c0.63-6.03,1.63-12.01,3.02-17.91c-1.61-0.44-3.21-0.89-4.82-1.33
			c-0.48,2.45-1.99,3.95-4.28,5.08c-2.34,1.16-5.12,1.57-7.74,1.54c-5.94-0.08-11.88-2.04-16.99-5.01
			c-10.12-5.87-18.62-17.02-19.06-28.99c-0.2-5.46,1.37-12.47,6.82-14.77c1.83-0.77,2.68-3.43,0.6-4.57
			c-4.52-2.47-6.49-7.86-5.84-12.83c0.7-5.31,4.88-9.66,9.89-11.56c3.26-1.24,6.68-1.62,10.14-1.23c1.93,0.22,3.05-2.27,2.16-3.76
			c-2.53-4.23-6.35-10.55-3.65-15.53c2.16-3.99,7.33-5.12,11.48-5.51c9.69-0.92,20.15,0.27,28.89,4.76
			c4.72,2.42,8.88,5.83,11.81,10.28c0.97,1.47,3.42,1.77,4.32,0c2.2-4.36,7.02-6.45,11.76-6.28c5.53,0.2,10.35,3.8,13.76,7.9
			c3.87,4.66,6.24,10.56,7.23,16.5c0.9,5.41,0.81,11.96-1.8,16.92c-1.4,2.66-3.52,4.5-6.49,5.18c-3.29,0.75-6.83,0.11-10.1-0.47
			c-1.22-0.22-2.46,0.23-2.95,1.45c-0.42,1.04-0.13,2.61,1.02,3.12c8.82,3.87,12.34,14.78,10,23.69
			c-1.37,5.23-4.79,9.02-10.09,10.35c-5.2,1.3-11.22,0.76-16.31-0.78c-5.31-1.61-10.69-5.68-10.79-11.72
			c-0.04-2.44-3.41-3.45-4.66-1.26c-5.32,9.3-18.8,8.29-26.54,2.99c-4.39-3.01-7.47-7.72-8.21-13.01
			c-0.71-5.07,0.71-10.51,4.39-14.15c3.9-3.86,9.76-5.52,15.03-3.86c2.68,0.84,4.45-3.25,1.93-4.57c-2.98-1.56-6.18-3.14-8.36-5.79
			c-1.69-2.05-2.77-5.27-1.28-7.71c1.27-2.08,4.02-2.83,6.31-3c3.04-0.22,6.11,0.27,8.99,1.23c3.17,1.06,6.24,2.92,8.27,5.62
			c0.81,1.08,2.16,1.63,3.42,0.9c1.12-0.66,1.64-2.29,0.9-3.42c-0.92-1.4-3.19-4.87-1.47-6.14c0.51-0.38,1.37-0.4,2.17-0.25
			c1.2,0.23,2.32,0.77,3.3,1.49c4.11,3,6.55,7.89,7.6,12.76c1.08,4.99,0.84,10.79-1.14,15.55c-1.14,2.74-3.25,3.86-6.13,4.05
			c-2.99,0.19-6.33,0.25-9.2-0.69c-1.98-0.65-4.65-2.92-3.63-5.25c0.96-2.18,4.5-2.31,6.57-2.31
			C305.9,128.52,305.91,123.52,302.69,123.53L302.69,123.53z"/>
	</g>
</g>
<g>
	<path class="st0" d="M155.14,581.54v-2.79c1.2-0.25,2.17-0.75,2.91-1.5c0.74-0.75,1.48-2.07,2.22-3.95l12.19-31.85h6.45
		l11.87,32.49c0.61,1.67,1.28,2.83,2.03,3.49c0.74,0.66,1.79,1.1,3.16,1.32v2.79h-19.47v-2.79c1.74-0.11,2.94-0.34,3.61-0.7
		c0.67-0.36,1.01-0.94,1.01-1.75c0-0.32-0.13-0.9-0.38-1.72c-0.04-0.11-0.05-0.17-0.05-0.19l-1.99-6.34h-13.11l-1.64,5l-0.05,0.19
		c-0.45,1.31-0.67,2.24-0.67,2.79c0,0.81,0.3,1.41,0.91,1.8c0.61,0.39,1.72,0.7,3.33,0.91v2.79H155.14z M166.58,565.27h10.9
		l-5.13-15.74L166.58,565.27z"/>
	<path class="st0" d="M224.8,575.15c0,1.4,0.2,2.35,0.59,2.85c0.39,0.5,1.15,0.84,2.28,1.02v2.52h-14.31v-2.52
		c1.13-0.13,1.9-0.44,2.31-0.94c0.41-0.5,0.62-1.48,0.62-2.93V562.8c0-2.2-0.22-3.71-0.67-4.51c-0.45-0.81-1.22-1.21-2.31-1.21
		c-1.61,0-2.89,0.81-3.83,2.43c-0.94,1.62-1.41,3.85-1.41,6.7v8.94c0,1.45,0.21,2.43,0.62,2.93c0.41,0.5,1.18,0.81,2.31,0.94v2.52
		h-14.31v-2.52c1.15-0.18,1.91-0.51,2.3-0.99s0.58-1.44,0.58-2.87v-16.38c0-1.32-0.21-2.19-0.62-2.6c-0.41-0.41-1.23-0.64-2.44-0.7
		v-2.58c2.09-0.13,4.03-0.26,5.8-0.4c1.77-0.14,3.46-0.3,5.08-0.48v6.55c1.43-2.04,2.97-3.57,4.62-4.58
		c1.65-1.01,3.4-1.52,5.26-1.52c2.69,0,4.61,0.93,5.79,2.78c1.17,1.85,1.76,4.92,1.76,9.2V575.15z"/>
	<path class="st0" d="M230.79,581.54v-2.52c1.15-0.18,1.91-0.51,2.3-0.99c0.38-0.48,0.58-1.44,0.58-2.87v-16.38
		c0-1.34-0.2-2.22-0.6-2.63c-0.4-0.41-1.22-0.64-2.46-0.67v-2.58c1.83-0.09,3.72-0.21,5.69-0.35c1.97-0.14,3.99-0.32,6.07-0.54
		v23.15c0,1.43,0.19,2.39,0.58,2.87c0.38,0.48,1.14,0.81,2.27,0.99v2.52H230.79z M232.56,543.44c0-1.2,0.45-2.2,1.36-2.99
		s2.05-1.2,3.42-1.2s2.53,0.4,3.45,1.21s1.38,1.8,1.38,2.98c0,1.2-0.44,2.18-1.33,2.93c-0.89,0.75-2.05,1.13-3.5,1.13
		c-1.43,0-2.59-0.38-3.46-1.13S232.56,544.64,232.56,543.44z"/>
	<path class="st0" d="M251.17,555.41h-3.3v-2.52c2.29-0.7,4.15-1.96,5.59-3.8c1.43-1.84,2.52-4.35,3.28-7.53h2.95v11.33h6.45v2.52
		h-6.45v16.62c0,1.88,0.16,3.25,0.47,4.12c0.31,0.87,0.8,1.3,1.46,1.3c0.75,0,1.37-0.58,1.84-1.75c0.47-1.16,0.79-2.88,0.95-5.16
		l2.6-0.03v0.4c0,3.69-0.75,6.53-2.26,8.51c-1.5,1.99-3.65,2.98-6.45,2.98c-2.56,0-4.39-0.77-5.49-2.31
		c-1.1-1.54-1.65-4.13-1.65-7.76V555.41z"/>
	<path class="st0" d="M286.86,577.81c-1.63,1.52-3.26,2.67-4.9,3.45c-1.64,0.78-3.27,1.17-4.9,1.17c-2.24,0-4.08-0.69-5.53-2.07
		c-1.45-1.38-2.18-3.13-2.18-5.26c0-3.01,1.39-5.35,4.18-7.04s7.04-2.75,12.77-3.2v-3.95c0-2.49-0.38-4.19-1.15-5.12
		c-0.77-0.92-2.1-1.38-4-1.38c-0.84,0-1.58,0.13-2.2,0.39c-0.63,0.26-0.94,0.53-0.94,0.82c0,0.04,0.05,0.14,0.16,0.32
		c0.05,0.09,0.09,0.15,0.11,0.19l0.78,1.21c0.16,0.25,0.29,0.56,0.39,0.93c0.1,0.37,0.15,0.74,0.15,1.11c0,1.07-0.4,1.96-1.21,2.67
		c-0.81,0.71-1.85,1.06-3.14,1.06c-1.32,0-2.4-0.38-3.22-1.13c-0.82-0.75-1.24-1.74-1.24-2.95c0-2.04,1.08-3.72,3.25-5.05
		c2.17-1.32,4.98-1.99,8.43-1.99c4.19,0,7.28,0.88,9.27,2.63s2.98,4.49,2.98,8.22v13.86c0,0.5,0.09,0.87,0.27,1.11
		s0.46,0.36,0.83,0.36c0.25,0,0.6-0.1,1.06-0.3c0.46-0.2,0.77-0.3,0.93-0.3c0.21,0,0.41,0.09,0.58,0.28s0.26,0.4,0.26,0.63
		c0,0.79-0.66,1.59-1.99,2.42s-2.74,1.24-4.24,1.24c-1.38,0-2.52-0.35-3.41-1.05S287.38,579.31,286.86,577.81z M286.3,567.2
		c-2.85,0.41-4.97,1.16-6.36,2.24c-1.4,1.08-2.09,2.51-2.09,4.28c0,1.22,0.34,2.18,1.02,2.87s1.62,1.05,2.82,1.05
		c1.61,0,2.8-0.63,3.57-1.89c0.77-1.26,1.15-3.22,1.15-5.87c0-0.3,0-0.64-0.01-0.99C286.39,568.54,286.35,567.97,286.3,567.2z"/>
	<path class="st0" d="M325.67,558.07c-0.82-1.54-1.44-2.99-1.85-4.36s-0.62-2.69-0.62-3.96c0-2.79,0.96-5.04,2.87-6.74
		c1.92-1.7,4.46-2.55,7.63-2.55c2.63,0,4.7,0.68,6.22,2.04s2.27,3.21,2.27,5.56c0,1.93-0.63,3.62-1.88,5.06s-3.14,2.63-5.67,3.56
		c1.34,2.22,2.77,4.48,4.27,6.78c1.5,2.3,3.09,4.66,4.75,7.08c0.88-1.22,1.56-2.44,2.04-3.68c0.48-1.24,0.73-2.35,0.73-3.36
		c0-0.9-0.28-1.54-0.85-1.92c-0.56-0.38-1.57-0.61-3.02-0.68v-2.66h12.38v2.69c-1.25,0-2.25,0.18-2.98,0.54s-1.3,0.93-1.69,1.72
		c-0.14,0.29-0.71,1.62-1.71,4.01c-0.99,2.39-2.05,4.43-3.18,6.11c0.82,1.38,1.6,2.39,2.34,3.03s1.46,0.97,2.18,0.97
		c0.66,0,1.22-0.18,1.68-0.54c0.46-0.36,1.03-1.15,1.73-2.36l2.07,1.37c-0.91,2.08-2.12,3.68-3.63,4.81
		c-1.5,1.13-3.19,1.69-5.05,1.69c-1.5,0-2.89-0.32-4.15-0.97c-1.26-0.64-2.45-1.63-3.56-2.95c-1.72,1.4-3.49,2.43-5.32,3.12
		c-1.83,0.68-3.74,1.02-5.75,1.02c-3.69,0-6.71-1.08-9.06-3.24c-2.35-2.16-3.53-4.91-3.53-8.26c0-2.74,0.85-5.17,2.54-7.29
		C319.56,561.58,322.16,559.7,325.67,558.07z M336.95,576.15c-1.93-2.56-3.74-5.14-5.41-7.73c-1.67-2.6-3.25-5.22-4.71-7.87
		c-1.27,0.52-2.21,1.22-2.82,2.09c-0.61,0.88-0.91,1.97-0.91,3.28c0,1.09,0.19,2.26,0.56,3.5c0.38,1.24,0.89,2.4,1.53,3.48
		c0.98,1.63,2.08,2.87,3.28,3.73c1.2,0.86,2.43,1.29,3.71,1.29c0.79,0,1.57-0.14,2.35-0.43C335.3,577.2,336.11,576.75,336.95,576.15
		z M332.95,554.42c1.41-0.97,2.46-2,3.14-3.1c0.68-1.1,1.02-2.32,1.02-3.67c0-1.4-0.31-2.48-0.93-3.26
		c-0.62-0.78-1.48-1.17-2.59-1.17c-0.93,0-1.74,0.38-2.43,1.15c-0.69,0.77-1.03,1.7-1.03,2.79c0,0.95,0.21,1.98,0.64,3.1
		C331.2,551.39,331.93,552.77,332.95,554.42z"/>
	<path class="st0" d="M387.6,582.48l-12.25-33.43c-0.59-1.59-1.25-2.73-1.97-3.4c-0.73-0.67-1.76-1.14-3.1-1.41v-2.79h19.04v2.79
		c-1.54,0.2-2.6,0.47-3.17,0.82s-0.86,0.89-0.86,1.62c0,0.21,0.04,0.47,0.11,0.77c0.07,0.3,0.19,0.66,0.35,1.09l8.35,22.72
		l7.49-21.35c0.04-0.13,0.1-0.31,0.19-0.56c0.41-1.16,0.62-1.96,0.62-2.39c0-0.73-0.33-1.31-0.99-1.72
		c-0.66-0.41-1.82-0.74-3.46-0.99v-2.79h12.6v2.79c-1.24,0.23-2.25,0.76-3.03,1.57c-0.79,0.81-1.51,2.11-2.18,3.88l-12.06,32.79
		H387.6z"/>
	<path class="st0" d="M423.45,577.81c-1.63,1.52-3.26,2.67-4.9,3.45c-1.64,0.78-3.27,1.17-4.9,1.17c-2.24,0-4.08-0.69-5.53-2.07
		c-1.45-1.38-2.18-3.13-2.18-5.26c0-3.01,1.39-5.35,4.18-7.04s7.04-2.75,12.77-3.2v-3.95c0-2.49-0.38-4.19-1.15-5.12
		c-0.77-0.92-2.1-1.38-4-1.38c-0.84,0-1.58,0.13-2.2,0.39c-0.63,0.26-0.94,0.53-0.94,0.82c0,0.04,0.05,0.14,0.16,0.32
		c0.05,0.09,0.09,0.15,0.11,0.19l0.78,1.21c0.16,0.25,0.29,0.56,0.39,0.93c0.1,0.37,0.15,0.74,0.15,1.11c0,1.07-0.4,1.96-1.21,2.67
		c-0.81,0.71-1.85,1.06-3.14,1.06c-1.32,0-2.4-0.38-3.22-1.13c-0.82-0.75-1.24-1.74-1.24-2.95c0-2.04,1.08-3.72,3.25-5.05
		c2.17-1.32,4.98-1.99,8.43-1.99c4.19,0,7.28,0.88,9.27,2.63s2.98,4.49,2.98,8.22v13.86c0,0.5,0.09,0.87,0.27,1.11
		s0.46,0.36,0.83,0.36c0.25,0,0.6-0.1,1.06-0.3c0.46-0.2,0.77-0.3,0.93-0.3c0.21,0,0.41,0.09,0.58,0.28s0.26,0.4,0.26,0.63
		c0,0.79-0.66,1.59-1.99,2.42c-1.32,0.82-2.74,1.24-4.24,1.24c-1.38,0-2.52-0.35-3.41-1.05S423.97,579.31,423.45,577.81z
		 M422.89,567.2c-2.85,0.41-4.97,1.16-6.36,2.24c-1.4,1.08-2.09,2.51-2.09,4.28c0,1.22,0.34,2.18,1.02,2.87
		c0.68,0.7,1.62,1.05,2.82,1.05c1.61,0,2.8-0.63,3.57-1.89c0.77-1.26,1.15-3.22,1.15-5.87c0-0.3,0-0.64-0.01-0.99
		C422.97,568.54,422.94,567.97,422.89,567.2z"/>
	<path class="st0" d="M440.21,546.44c0-1.29-0.22-2.16-0.66-2.62c-0.44-0.46-1.27-0.7-2.48-0.74v-2.5c1.74-0.07,3.56-0.21,5.48-0.43
		s4.01-0.52,6.28-0.91v35.91c0,1.4,0.2,2.35,0.6,2.85c0.4,0.5,1.18,0.84,2.32,1.02v2.52h-14.42v-2.52c1.15-0.18,1.91-0.51,2.3-0.99
		c0.38-0.48,0.58-1.44,0.58-2.87V546.44z"/>
	<path class="st0" d="M482.1,566.75h-17.32c-0.02,0.25-0.03,0.52-0.04,0.82c-0.01,0.3-0.01,0.72-0.01,1.28c0,3.62,0.5,6.28,1.5,7.99
		s2.57,2.56,4.7,2.56c1.65,0,3.19-0.55,4.62-1.65c1.43-1.1,2.67-2.67,3.71-4.71l2.58,0.91c-1.13,2.83-2.77,4.95-4.91,6.36
		s-4.8,2.12-7.95,2.12c-1.84,0-3.57-0.32-5.18-0.97c-1.61-0.64-3.04-1.57-4.3-2.77c-1.47-1.43-2.59-3.12-3.36-5.06
		c-0.77-1.94-1.15-4.07-1.15-6.38c0-4.51,1.3-8.18,3.91-11.01c2.6-2.83,5.97-4.24,10.08-4.24c3.94,0,7.11,1.31,9.52,3.92
		s3.61,6.1,3.61,10.45V566.75z M464.73,564.22h8.3v-0.51c0-3.31-0.32-5.67-0.95-7.08c-0.64-1.41-1.7-2.11-3.18-2.11
		c-1.45,0-2.48,0.69-3.1,2.08S464.82,560.53,464.73,564.22z"/>
</g>
</svg>
