<svg id="eRT6BVm07nc1" xmlns="http://www.w3.org/2000/svg" xmlns:xlink="http://www.w3.org/1999/xlink" viewBox="0 0 300 300" shape-rendering="geometricPrecision" text-rendering="geometricPrecision" project-id="3e3657a1f3d44fd29b1a9d742809ab6c" export-id="c6f90f4e15c84ff38248df93b12f3c11" cached="false"><path d="M162.777338,125.990491q-34.469098-.237717-30.309034,11.885896c4.160064,12.123613,24.960381,11.885896,32.686213,7.725832s54.080823-58.240889,29.714738-66.561015-33.874801,25.554675-32.686212,26.743265-16.640254-27.931855-29.714739-26.743265-8.320127,29.120444-2.377179,32.091918s5.942949,4.754358,6.537243,4.754358-65.372426-18.423138-51.109351-2.377179q14.263075,16.045959,31.497623,23.177496-45.760698,16.045959-28.526149,33.874802t45.166403-10.697306q23.771791,46.949286,44.572108,38.629159c20.800317-8.320127,5.348653-42.194928,5.348653-42.789223s59.429477,21.394611,64.183835,1.188589q4.754358-20.206022-31.497624-39.817749q61.21236-64.778131,22.5832-65.96672t-68.938193,17.828843q-45.166404-70.721078-57.646594-33.280507t-2.37718,57.052298Q5.289218,76.664024,32.032483,103.407289c26.743265,26.743265,43.977813,32.686212,45.166402,33.280507s-66.561017,79.041205-12.480192,73.098257q54.080825-5.942948,62.995246-20.800317l-3.565769,98.058637q10.697306-43.977812,25.851823-45.760697c15.154517-1.782885,44.274961-6.537243,56.755151-14.263075q12.48019-7.725832,19.611727-14.857369-16.04596,52.892235-37.440571,57.052298c-21.394611,4.160063-35.063392,2.37718-43.977813,8.320127" transform="translate(.000007 0.000001)" fill="none" stroke="#3f5787" stroke-width="0.6"/></svg>
