<?xml version="1.0" encoding="utf-8"?>
<!-- Generator: Adobe Illustrator 28.2.0, SVG Export Plug-In . SVG Version: 6.00 Build 0)  -->
<svg version="1.1" id="Capa_1" xmlns="http://www.w3.org/2000/svg" xmlns:xlink="http://www.w3.org/1999/xlink" x="0px" y="0px"
	 viewBox="0 0 612 792" style="enable-background:new 0 0 612 792;" xml:space="preserve">
<g>
	<g>
		<g>
			<path d="M483.07,300.55c-3.6-7.81-8.37-16.27-16.61-19.92c-6.5-2.88-15.46-1.95-20.29,3.65c-6.94,8.04-0.71,18.35,3.71,25.92
				c4.56,7.81,10.15,15.57,18.69,19.31c15.12,6.62,33.72,0.71,44.32-11.38c6.06-6.91,10.02-15.41,12.19-24.3
				c2.16-8.88,2.97-18.53,1.95-27.63c-0.56-5.02-1.95-10.12-5.62-13.8c-3.31-3.32-8.07-4.91-12.71-4.83
				c-10.57,0.18-18.41,8.41-22.39,17.55c1.52,0.2,3.05,0.4,4.57,0.6c-6.67-17.79-16.32-38.1-36.65-42.91
				c-8.61-2.04-17.54-0.18-24.57,5.2c-6.93,5.31-11.38,13.4-11.51,22.2c-0.14,9.67,4.55,18.93,12.35,24.6
				c0.2-1.52,0.4-3.05,0.6-4.57c-23.57,8.17-42.88,29.31-42.38,55.24c0.24,12.41,4.99,24.84,14.2,33.34
				c9.35,8.63,22.55,13.07,35.22,11.49c13.92-1.74,26.56-10.36,33.29-22.67c-1.52-0.64-3.05-1.28-4.57-1.93
				c-3.71,9.95,1.92,20.68,10.12,26.43c10.35,7.26,24.42,5.63,35.71,1.75c12.02-4.13,23.21-10.75,32.83-19.04
				c8.55-7.37,16.33-17.04,17.43-28.68c1.02-10.81-5.5-23.1-16.68-25.46c-0.22,1.64-0.44,3.27-0.66,4.91
				c16.22,0.96,29.25-13.02,33.02-27.81c4.79-18.77-4.37-38.06-14.01-53.67c-19.01-30.79-46.55-59.9-84.1-65.23
				c-9.05-1.28-18.26-1.09-27.19,0.94c-9.06,2.06-17.64,6.03-25.5,10.93c-15.34,9.56-29.04,22.39-40.84,36.02
				c-23.33,26.94-39.54,60.7-39.29,96.88c0.12,17.49,3.99,35.04,12.09,50.59c7.88,15.13,21.04,31.88,39.64,32.38
				c4.43,0.12,8.76-0.85,12.71-2.85c-1.01-1.31-2.02-2.62-3.03-3.93c-16.21,13.16-26.41,31.78-36.3,49.78
				c-10.85,19.76-22.7,38.87-36.1,57.02c-7.69,10.42-15.84,20.5-24.37,30.24c-2.11,2.4,1.2,5.8,3.54,3.54
				c16.76-16.23,33.6-32.58,52.55-46.28c4.59-3.32,9.28-6.51,14.14-9.43c4.77-2.87,9.8-5.41,15.27-6.61
				c11.43-2.49,22.04,3.31,32.1,7.9c10.75,4.9,23.48,8.89,34.67,3.01c-1.01-1.31-2.02-2.62-3.03-3.93
				c-16.39,18.94-36.82,34.11-59.59,44.54c-11.35,5.2-23.28,9.15-35.47,11.8c-12.05,2.62-24.25,3.26-36.45,4.74
				c-13.21,1.6-26.68,4.68-36.6,14.16c-2.33,2.23,1.21,5.76,3.54,3.54c8.59-8.21,20.45-11.08,31.9-12.55
				c12.21-1.57,24.48-2.11,36.58-4.56c24.49-4.97,47.97-15.24,68.32-29.73c11.51-8.2,22.06-17.7,31.31-28.39
				c1.84-2.13-0.44-5.29-3.03-3.93c-9.85,5.18-21.54,0.73-30.84-3.57c-10.17-4.7-20.65-9.93-32.19-8.3
				c-11.26,1.6-21.27,8.62-30.36,15c-9.53,6.69-18.57,14.06-27.29,21.76c-9.96,8.8-19.51,18.05-29.06,27.29
				c1.18,1.18,2.36,2.36,3.54,3.54c15.21-17.36,29.17-35.81,41.7-55.19c6.05-9.37,11.75-18.96,17.14-28.72
				c5.04-9.11,9.92-18.32,15.54-27.09c6.22-9.7,13.4-18.77,22.38-26.06c2.31-1.87-0.63-5.14-3.03-3.93
				c-7.81,3.95-17.12,2.13-24.3-2.32c-7.09-4.39-12.53-11.16-16.98-18.11c-8.86-13.83-13.86-29.93-15.23-46.25
				c-2.84-33.83,9.6-66.37,29.79-93.09c10.2-13.5,22.35-25.7,35.59-36.22c13.7-10.88,29.64-19.52,47.44-20.35
				c17.29-0.81,34.45,4.8,48.94,14.05c14.58,9.31,26.61,22.23,36.64,36.22c5.12,7.14,9.92,14.58,14.05,22.34
				c4.24,7.97,7.78,16.57,8.93,25.59c1.01,7.98,0.03,15.98-3.77,23.12c-3.31,6.22-8.5,11.83-15.12,14.53
				c-3.2,1.31-6.56,1.82-9.99,1.61c-2.79-0.17-3.43,4.33-0.66,4.91c8.3,1.75,13.05,10.33,13.1,18.37
				c0.06,9.97-6.64,18.69-13.58,25.19c-8.06,7.55-17.62,13.62-27.78,17.93c-10.11,4.29-22.28,7.46-32.93,3.17
				c-8.74-3.53-15.58-13.76-12.08-23.15c1-2.67-3.23-4.38-4.57-1.93c-5.36,9.81-14.82,17.02-25.72,19.57
				c-11.13,2.61-23.22-0.29-32.29-7.18c-8.95-6.79-14.21-17.52-15.19-28.61c-1.01-11.38,2.13-22.52,8.65-31.85
				c7.2-10.3,18.06-17.88,29.87-21.98c2.14-0.74,2.35-3.29,0.6-4.57c-5.88-4.27-9.52-11.44-9.85-18.66
				c-0.33-7.3,2.79-14.07,8.26-18.86c5.71-5.01,13.47-7.08,20.89-5.47c7.88,1.7,14.68,6.61,19.8,12.72
				c6.52,7.78,10.41,17.43,13.94,26.83c0.66,1.76,3.62,2.77,4.57,0.6c2.98-6.83,8.19-13.71,16.04-14.92
				c3.37-0.52,7.06,0.07,9.88,2.06c3.08,2.18,4.48,5.81,5.17,9.39c1.46,7.55,0.84,16.06-0.47,23.59
				c-1.35,7.73-3.88,15.27-8.16,21.88c-7.6,11.74-21.97,19.77-36.18,17.21c-7.33-1.32-13.17-5.52-17.63-11.39
				c-2.5-3.29-4.58-6.89-6.61-10.48c-2.12-3.75-4.8-7.98-4.63-12.46c0.27-7.25,8.84-9.65,14.77-7.94
				c8.17,2.35,12.68,11.39,15.96,18.49C480.1,305.99,484.41,303.46,483.07,300.55L483.07,300.55z"/>
		</g>
	</g>
	<g>
		<g>
			<path d="M126.48,314.34c2.28-6.95,5.3-14.93,11.86-18.96c4.54-2.79,11.96-3.03,15.64,1.38c2.52,3.02,1.95,7.2,0.89,10.69
				c-1.23,4.04-3.04,7.98-4.85,11.79c-3.32,7.01-7.64,13.61-14.77,17.18c-12.54,6.28-28.71,2.02-38.53-7.3
				c-11.39-10.79-16.32-26.93-17.42-42.21c-0.32-4.4-0.4-9.29,1.88-13.24c1.93-3.34,5.48-5.25,9.25-5.7
				c8.79-1.05,15.82,5.57,19.91,12.64c1.06,1.83,4.05,1.5,4.57-0.6c4.02-16.17,9.73-34.43,25.96-42.2
				c6.84-3.28,14.79-3.37,21.57,0.11c6.67,3.42,11.59,9.52,12.96,16.94c1.51,8.16-1.54,16.88-7.62,22.46
				c-1.35,1.24-0.7,3.78,1.1,4.18c21.79,4.84,41.63,21.32,44.39,44.43c1.33,11.14-1.28,23.03-8.6,31.75
				c-7.23,8.61-18.16,14-29.43,14.17c-12.61,0.18-25.07-6.19-32.34-16.49c-1.84-2.61-5.8-0.38-4.32,2.52
				c3.98,7.77-0.37,17.32-6.82,22.3c-8.61,6.64-20.85,6-30.86,3.67c-11.16-2.6-21.8-7.31-31.34-13.65
				c-8.2-5.46-16.34-12.77-19-22.61c-2.29-8.46,1.06-19.78,10.05-22.77c3.09-1.03,1.82-5.38-1.33-4.82
				c-14.71,2.6-27.67-10.53-31.36-23.73c-4.98-17.83,3-36.8,10.8-52.56c15.09-30.5,38.41-59.85,73.16-67.82
				c8.08-1.85,16.54-2.36,24.76-1.17c8.87,1.29,17.4,4.38,25.38,8.4c15.2,7.66,29.26,18.16,41.73,29.69
				c24.28,22.46,43.07,51.68,47.54,84.94c2.23,16.56,0.96,33.67-4.49,49.5c-5.11,14.81-14.75,32.89-31.55,36.25
				c-3.97,0.79-8,0.48-11.8-0.93c-2.75-1.02-4.22,3.11-1.93,4.57c17.48,11.13,29.46,28.5,41.25,45.1
				c13.04,18.36,27.07,35.95,42.46,52.4c8.83,9.43,18.05,18.49,27.62,27.17c1.01-1.31,2.02-2.62,3.03-3.93
				c-18.51-14.2-37.11-28.46-57.47-39.96c-10.03-5.66-20.95-11.87-32.56-13.3c-11.31-1.39-21.22,3.74-30.57,9.46
				c-10,6.11-22.08,13.88-34.19,9.19c-2.36-0.91-4.2,2.56-2.43,4.18c18.58,17.05,40.74,29.97,64.65,37.96
				c11.86,3.96,24.12,6.65,36.54,8.08c12.37,1.42,24.66,0.93,37.08,0.83c13.15-0.11,26.99,0.76,37.87,9
				c1.08,0.82,2.79,0.16,3.42-0.9c0.76-1.27,0.17-2.61-0.9-3.42c-9.52-7.21-21.53-9.23-33.19-9.61c-12.2-0.4-24.39,0.67-36.59-0.19
				c-24.83-1.74-49.28-9.01-71.13-20.9c-12.35-6.71-23.85-14.89-34.2-24.39c-0.81,1.39-1.62,2.79-2.43,4.18
				c10.46,4.05,21.83-0.19,31.02-5.45c9.06-5.18,18.1-12.47,28.91-13.22c11.53-0.8,22.66,5.45,32.47,10.77
				c10.25,5.55,20.08,11.86,29.63,18.54c10.74,7.51,21.15,15.49,31.55,23.47c2.25,1.73,5.11-2.04,3.03-3.93
				c-17.05-15.46-32.97-32.15-47.58-49.93c-7.17-8.73-13.97-17.74-20.52-26.94c-6.04-8.48-11.99-17.04-18.62-25.08
				c-7.41-8.99-15.76-17.21-25.62-23.49c-0.64,1.52-1.28,3.05-1.93,4.57c8.55,3.17,18.35,1.14,25.81-3.82
				c7.38-4.9,12.79-12.16,17.01-19.84c8.66-15.78,12.6-33.88,12.38-51.82c-0.45-35.92-17.28-68.96-41.79-94.54
				c-12.29-12.83-26.45-24.14-41.63-33.36c-15.91-9.66-33.84-16.35-52.71-14.64c-18.25,1.66-35.42,9.79-49.39,21.47
				c-14.01,11.7-24.85,26.84-33.5,42.8c-8.98,16.57-18.11,35.64-16.67,54.99c1.18,15.84,11.53,32.16,27.78,35.94
				c3.72,0.86,7.46,0.9,11.21,0.24c-0.44-1.61-0.89-3.21-1.33-4.82c-9.68,3.23-14.88,13.56-14.4,23.38
				c0.56,11.59,8.69,21.05,17.48,27.8c10.18,7.81,22.15,13.5,34.52,16.82c11.6,3.12,25.49,4.28,36.06-2.56
				c9.65-6.24,15.48-19.27,9.95-30.07c-1.44,0.84-2.88,1.68-4.32,2.52c7.34,10.39,18.8,17.18,31.42,18.69
				c12.5,1.49,25.37-3.11,34.58-11.57c9.31-8.55,14.05-20.97,14.02-33.5c-0.03-12.62-4.77-24.7-12.98-34.22
				c-9.08-10.53-21.91-17.6-35.41-20.6c0.37,1.39,0.74,2.79,1.1,4.18c6.33-5.81,9.78-14.51,9.4-23.08
				c-0.39-8.71-4.77-16.5-11.74-21.67c-7.14-5.29-16.39-7.11-24.97-4.76c-8.62,2.36-15.86,8.31-21.07,15.43
				c-6.85,9.35-10.09,20.82-12.85,31.91c1.52-0.2,3.05-0.4,4.57-0.6c-4.49-7.75-11.74-14.5-21.05-15.17
				c-8.85-0.64-16.82,4.77-18.78,13.54c-1.05,4.71-0.71,9.62-0.16,14.37c0.52,4.52,1.31,9.02,2.51,13.42
				c2.35,8.67,6.18,16.96,11.87,23.94c10.47,12.86,28.88,19.94,44.99,14.14c8.72-3.14,14.79-9.83,18.99-17.92
				c2.21-4.25,4.15-8.73,5.83-13.22c1.72-4.58,2.81-9.72,0.87-14.41c-3.3-7.96-13.53-10.02-20.97-7.13
				c-9.65,3.74-14.1,14.24-17.1,23.37C120.65,316.08,125.48,317.39,126.48,314.34L126.48,314.34z"/>
		</g>
	</g>
	<g>
		<g>
			<path d="M301.07,110.37c-3.74,0-8.13,0.64-10.77,3.58c-3.11,3.47-2.41,8.3,0.41,11.7c2.97,3.57,7.82,4.43,12.22,4.59
				c4.44,0.16,9.45,0.27,13.14-2.6c3.41-2.66,4.75-7.19,5.49-11.27c0.73-4.02,0.82-8.06,0.27-12.11
				c-1.07-7.82-4.85-15.51-11.39-20.17c-3.26-2.32-8.39-3.71-11.9-1.15c-4.86,3.55-2.58,9.75,0.13,13.86
				c1.44-0.84,2.88-1.68,4.32-2.52c-5.38-7.19-14.91-10.92-23.8-10.32c-4.25,0.29-8.59,1.67-11.23,5.21
				c-2.85,3.81-2.45,8.94-0.3,12.97c2.61,4.91,7.72,7.73,12.47,10.21c0.64-1.52,1.28-3.05,1.93-4.57
				c-6.6-2.09-14.07-0.53-19.56,3.61c-6.05,4.56-9.27,11.79-9.1,19.33c0.17,7.46,3.55,14.56,9.23,19.41
				c5.48,4.68,12.65,7.47,19.89,7.38c7.81-0.09,15.9-3.51,19.89-10.51c-1.55-0.42-3.11-0.84-4.66-1.26
				c0.11,7.5,5.46,13.81,12.1,16.78c6.81,3.05,15,3.94,22.36,2.86c3.44-0.5,6.92-1.65,9.75-3.72c3.13-2.28,5.34-5.33,6.82-8.9
				c2.54-6.15,2.67-13.32,0.76-19.65c-2.06-6.86-6.65-13.17-13.33-16.09c-0.64,1.52-1.28,3.05-1.93,4.57
				c7.68,1.37,16.74,2.29,22.34-4.4c4.98-5.96,5.95-14.61,5.34-22.1c-0.67-8.19-3.44-16.34-8.34-22.98
				c-4.6-6.22-11.1-11.37-18.96-12.38c-7.6-0.98-16.09,2.44-19.64,9.5c1.44,0,2.88,0,4.32,0c-7.04-10.71-19.01-16.62-31.38-18.72
				c-6.27-1.06-12.72-1.38-19.05-0.75c-6.24,0.62-13,2.39-16.7,7.9c-5.04,7.52-0.51,16.85,3.56,23.64c0.72-1.25,1.44-2.51,2.16-3.76
				c-8.04-0.92-16.81,1.82-22.37,7.83c-5.26,5.68-6.99,14.07-4.17,21.34c1.54,3.96,4.18,7.37,7.95,9.43c0.2-1.52,0.4-3.05,0.6-4.57
				c-7.38,3.09-10.8,10.38-11.45,18.02c-0.66,7.71,1.75,15.55,5.51,22.21c7.85,13.89,22.69,23.74,38.69,24.79
				c7.77,0.51,18.3-2.46,20.01-11.26c0.26-1.32-0.37-2.7-1.75-3.08c-1.27-0.35-2.77,0.43-3.08,1.75
				c-5.65,24.03-5.31,48.88-3.56,73.35c0.5,6.96,1.11,13.9,1.72,20.85c0.12,1.35,1.06,2.5,2.5,2.5c1.35,0,2.5-1.14,2.5-2.5
				c-0.03-12.46,0.56-28.54,13.15-35.2c5.78-3.06,12.52-3.73,18.5-6.33c5.47-2.39,10.42-6.09,14.33-10.6
				c4.4-5.07,7.62-11.11,9.17-17.65c-1.64-0.22-3.27-0.44-4.91-0.66c-1.67,13.17-3.52,26.87-10.73,38.33
				c-6.34,10.07-15.76,17.67-24.1,25.98c-4.86,4.84-9.45,10.01-13.05,15.87c-1.69,2.75,2.64,5.26,4.32,2.52
				c6.38-10.39,15.97-18.18,24.52-26.68c4.31-4.29,8.42-8.82,11.8-13.89c3.83-5.73,6.45-12.18,8.22-18.83
				c2.04-7.63,3.03-15.49,4.02-23.31c0.36-2.81-4.27-3.37-4.91-0.66c-2.63,11.15-10.68,20.85-21.28,25.29
				c-6.13,2.57-12.91,3.25-18.78,6.5c-5.77,3.19-9.69,8.65-12.09,14.67c-3.09,7.78-3.19,16.4-3.17,24.65c1.67,0,3.33,0,5,0
				c-2.13-24.18-4.26-48.59-1.72-72.82c0.71-6.75,1.83-13.44,3.38-20.05c-1.61-0.44-3.21-0.89-4.82-1.33
				c-0.55,2.84-2.35,4.61-4.97,5.9c-2.66,1.31-5.79,1.78-8.75,1.75c-6.76-0.08-13.52-2.31-19.32-5.7
				c-11.39-6.64-20.94-19.19-21.44-32.7c-0.23-6.25,1.59-14.24,7.87-16.87c1.83-0.77,2.68-3.43,0.6-4.57
				c-5.15-2.81-7.4-8.94-6.7-14.59c0.77-6.16,5.59-11.14,11.37-13.32c3.66-1.38,7.52-1.82,11.4-1.37c1.93,0.22,3.05-2.27,2.16-3.76
				c-2.91-4.86-7.18-12.01-4.09-17.72c2.44-4.51,8.21-5.84,12.91-6.3c10.97-1.09,22.85,0.27,32.75,5.34
				c5.35,2.74,10.05,6.6,13.37,11.65c0.97,1.47,3.42,1.77,4.32,0c2.48-4.92,7.93-7.34,13.29-7.19c6.25,0.17,11.73,4.13,15.63,8.74
				c4.48,5.3,7.23,12.04,8.36,18.85c1.04,6.24,0.92,13.78-2.19,19.47c-1.65,3.02-4.18,5.03-7.58,5.74
				c-3.67,0.77-7.58,0.06-11.22-0.59c-1.22-0.22-2.46,0.23-2.95,1.45c-0.42,1.04-0.13,2.62,1.02,3.12
				c10.01,4.38,14,16.8,11.36,26.89c-0.72,2.76-1.94,5.46-3.91,7.56c-2.04,2.18-4.68,3.51-7.56,4.24
				c-5.87,1.49-12.68,0.88-18.44-0.84c-6.11-1.83-12.29-6.51-12.39-13.45c-0.04-2.44-3.41-3.45-4.66-1.26
				c-2.76,4.84-8.19,7.46-13.61,7.94c-5.88,0.52-11.76-1.17-16.6-4.51c-5.02-3.46-8.54-8.88-9.33-14.96
				c-0.75-5.76,0.9-11.89,5.11-16.01c4.44-4.35,11.1-6.23,17.07-4.34c2.68,0.85,4.45-3.25,1.93-4.57c-3.42-1.78-7.14-3.62-9.59-6.71
				c-1.83-2.32-3.01-5.91-1.44-8.66c1.46-2.54,4.64-3.48,7.39-3.69c3.42-0.26,6.9,0.29,10.15,1.37c3.65,1.21,7.18,3.35,9.51,6.46
				c0.81,1.08,2.16,1.63,3.42,0.9c1.12-0.65,1.64-2.29,0.9-3.42c-0.9-1.37-1.79-2.79-2.2-4.39c-0.26-1.01-0.17-2.26,0.51-2.81
				c0.72-0.59,1.75-0.6,2.72-0.42c1.37,0.25,2.64,0.85,3.77,1.65c4.76,3.37,7.58,9.04,8.77,14.62c1.21,5.67,1.02,12.56-1.45,17.9
				c-0.63,1.36-1.47,2.59-2.79,3.34c-1.34,0.76-2.94,0.99-4.46,1.07c-3.39,0.19-7.18,0.26-10.42-0.89c-2.3-0.82-5.16-3.52-4-6.21
				c1.11-2.58,5.18-2.77,7.64-2.78C304.29,115.36,304.3,110.36,301.07,110.37L301.07,110.37z"/>
		</g>
	</g>
	<g>
		<path d="M114.88,611.69v-3.13c1.34-0.28,2.43-0.84,3.27-1.69c0.83-0.84,1.66-2.32,2.48-4.43l13.67-35.71h7.23l13.31,36.43
			c0.68,1.87,1.44,3.17,2.27,3.91c0.83,0.74,2.01,1.23,3.54,1.48v3.13h-21.83v-3.13c1.95-0.12,3.3-0.38,4.05-0.78
			c0.75-0.4,1.13-1.05,1.13-1.96c0-0.36-0.14-1-0.42-1.93c-0.04-0.12-0.06-0.19-0.06-0.21l-2.23-7.11h-14.69l-1.84,5.6l-0.06,0.21
			c-0.5,1.47-0.75,2.51-0.75,3.13c0,0.9,0.34,1.58,1.02,2.02c0.68,0.44,1.93,0.78,3.73,1.02v3.13H114.88z M127.7,593.45h12.22
			l-5.75-17.64L127.7,593.45z"/>
		<path d="M192.98,604.52c0,1.57,0.22,2.63,0.66,3.19c0.44,0.56,1.29,0.94,2.56,1.14v2.83h-16.05v-2.83
			c1.26-0.14,2.13-0.49,2.59-1.05c0.46-0.56,0.69-1.66,0.69-3.28v-13.85c0-2.47-0.25-4.15-0.75-5.06c-0.5-0.9-1.37-1.36-2.59-1.36
			c-1.81,0-3.24,0.91-4.29,2.72c-1.05,1.82-1.58,4.32-1.58,7.51v10.03c0,1.63,0.23,2.72,0.69,3.28c0.46,0.56,1.32,0.91,2.59,1.05
			v2.83h-16.05v-2.83c1.28-0.2,2.14-0.57,2.57-1.11s0.65-1.62,0.65-3.22v-18.37c0-1.49-0.23-2.46-0.69-2.92
			c-0.46-0.46-1.38-0.72-2.74-0.78v-2.89c2.35-0.14,4.52-0.29,6.5-0.45c1.99-0.16,3.88-0.34,5.69-0.54v7.35
			c1.61-2.29,3.33-4,5.18-5.13c1.85-1.13,3.81-1.7,5.9-1.7c3.01,0,5.17,1.04,6.49,3.12c1.31,2.08,1.97,5.52,1.97,10.31V604.52z"/>
		<path d="M199.69,611.69v-2.83c1.28-0.2,2.14-0.57,2.57-1.11s0.65-1.62,0.65-3.22v-18.37c0-1.51-0.23-2.49-0.68-2.95
			c-0.45-0.46-1.37-0.71-2.75-0.75v-2.89c2.05-0.1,4.17-0.23,6.38-0.39c2.21-0.16,4.48-0.36,6.8-0.6v25.95
			c0,1.61,0.22,2.68,0.65,3.22c0.43,0.54,1.28,0.91,2.54,1.11v2.83H199.69z M201.68,568.97c0-1.34,0.51-2.46,1.52-3.36
			c1.01-0.89,2.29-1.34,3.84-1.34c1.55,0,2.83,0.45,3.87,1.35c1.03,0.9,1.55,2.02,1.55,3.34c0,1.35-0.5,2.44-1.49,3.28
			s-2.3,1.26-3.93,1.26c-1.61,0-2.9-0.42-3.88-1.26C202.17,571.41,201.68,570.31,201.68,568.97z"/>
		<path d="M222.54,582.4h-3.7v-2.83c2.57-0.78,4.66-2.2,6.26-4.26c1.61-2.06,2.83-4.87,3.67-8.45h3.31v12.71h7.22v2.83h-7.22v18.64
			c0,2.11,0.18,3.65,0.53,4.62c0.35,0.97,0.9,1.46,1.64,1.46c0.84,0,1.53-0.65,2.06-1.96c0.53-1.3,0.89-3.23,1.07-5.78l2.92-0.03
			v0.45c0,4.13-0.84,7.32-2.53,9.54c-1.69,2.23-4.09,3.34-7.23,3.34c-2.87,0-4.92-0.86-6.16-2.59s-1.85-4.63-1.85-8.7V582.4z"/>
		<path d="M262.56,607.51c-1.83,1.71-3.66,3-5.5,3.87s-3.67,1.31-5.5,1.31c-2.51,0-4.58-0.77-6.2-2.32
			c-1.63-1.54-2.44-3.51-2.44-5.9c0-3.37,1.56-6,4.68-7.89s7.89-3.08,14.32-3.58v-4.43c0-2.79-0.43-4.7-1.29-5.74
			c-0.86-1.03-2.36-1.55-4.49-1.55c-0.94,0-1.77,0.15-2.47,0.44c-0.7,0.29-1.05,0.6-1.05,0.92c0,0.04,0.06,0.16,0.18,0.36
			c0.06,0.1,0.1,0.17,0.12,0.21l0.87,1.36c0.18,0.28,0.33,0.63,0.44,1.04c0.11,0.41,0.17,0.83,0.17,1.25c0,1.2-0.45,2.2-1.35,3
			c-0.9,0.79-2.08,1.19-3.52,1.19c-1.49,0-2.69-0.42-3.61-1.26c-0.92-0.84-1.38-1.95-1.38-3.31c0-2.29,1.21-4.17,3.64-5.66
			c2.43-1.49,5.58-2.23,9.45-2.23c4.7,0,8.16,0.98,10.39,2.95c2.23,1.97,3.34,5.04,3.34,9.21v15.54c0,0.56,0.1,0.98,0.3,1.25
			c0.2,0.27,0.51,0.41,0.93,0.41c0.28,0,0.68-0.11,1.19-0.33s0.86-0.33,1.04-0.33c0.24,0,0.46,0.11,0.65,0.32
			c0.19,0.21,0.29,0.45,0.29,0.71c0,0.88-0.74,1.79-2.23,2.71s-3.07,1.38-4.76,1.38c-1.55,0-2.82-0.39-3.82-1.17
			C263.93,610.43,263.14,609.19,262.56,607.51z M261.92,595.61c-3.19,0.46-5.57,1.3-7.14,2.51s-2.35,2.81-2.35,4.8
			c0,1.37,0.38,2.44,1.14,3.22c0.76,0.78,1.82,1.17,3.16,1.17c1.81,0,3.14-0.71,4-2.12c0.86-1.42,1.29-3.61,1.29-6.58
			c0-0.34,0-0.71-0.01-1.11C262.02,597.11,261.99,596.48,261.92,595.61z"/>
		<path d="M306.06,585.38c-0.92-1.73-1.62-3.36-2.08-4.89s-0.69-3.02-0.69-4.44c0-3.13,1.07-5.65,3.22-7.56
			c2.15-1.91,5-2.86,8.55-2.86c2.95,0,5.27,0.76,6.97,2.29c1.7,1.53,2.54,3.6,2.54,6.23c0,2.17-0.7,4.06-2.11,5.68
			c-1.41,1.62-3.52,2.95-6.35,3.99c1.5,2.49,3.1,5.02,4.79,7.6c1.69,2.58,3.46,5.22,5.33,7.93c0.98-1.36,1.75-2.74,2.29-4.12
			c0.54-1.39,0.81-2.64,0.81-3.76c0-1-0.32-1.72-0.95-2.15c-0.63-0.43-1.76-0.69-3.39-0.77v-2.98h13.88v3.01
			c-1.41,0-2.52,0.2-3.34,0.6c-0.82,0.4-1.46,1.04-1.9,1.93c-0.16,0.32-0.8,1.82-1.91,4.5c-1.11,2.68-2.3,4.96-3.57,6.85
			c0.92,1.55,1.8,2.68,2.62,3.4s1.64,1.08,2.44,1.08c0.74,0,1.37-0.2,1.88-0.6c0.51-0.4,1.16-1.28,1.94-2.65l2.32,1.54
			c-1.02,2.33-2.38,4.12-4.06,5.39c-1.69,1.26-3.57,1.9-5.66,1.9c-1.69,0-3.24-0.36-4.65-1.08c-1.42-0.72-2.74-1.83-3.99-3.31
			c-1.93,1.57-3.91,2.73-5.96,3.49c-2.05,0.76-4.2,1.14-6.44,1.14c-4.13,0-7.52-1.21-10.16-3.63c-2.64-2.42-3.96-5.5-3.96-9.26
			c0-3.07,0.95-5.8,2.84-8.17S302.13,587.2,306.06,585.38z M318.71,605.64c-2.17-2.87-4.19-5.76-6.07-8.67s-3.64-5.85-5.28-8.82
			c-1.42,0.58-2.48,1.37-3.16,2.35c-0.68,0.98-1.02,2.21-1.02,3.67c0,1.22,0.21,2.53,0.63,3.93c0.42,1.4,0.99,2.69,1.72,3.9
			c1.1,1.83,2.33,3.22,3.67,4.18s2.73,1.45,4.15,1.45c0.88,0,1.76-0.16,2.63-0.48S317.76,606.32,318.71,605.64z M314.22,581.28
			c1.58-1.08,2.76-2.24,3.52-3.48c0.76-1.23,1.14-2.6,1.14-4.11c0-1.57-0.35-2.79-1.04-3.66s-1.66-1.31-2.91-1.31
			c-1.04,0-1.95,0.43-2.72,1.29c-0.77,0.86-1.16,1.91-1.16,3.13c0,1.06,0.24,2.22,0.72,3.48
			C312.27,577.88,313.08,579.43,314.22,581.28z"/>
		<path d="M375.49,612.74l-13.73-37.48c-0.66-1.79-1.4-3.06-2.21-3.81c-0.81-0.75-1.97-1.28-3.48-1.58v-3.13h21.35v3.13
			c-1.73,0.22-2.91,0.53-3.55,0.92c-0.64,0.39-0.96,1-0.96,1.82c0,0.24,0.04,0.53,0.12,0.86c0.08,0.33,0.21,0.74,0.39,1.22
			l9.36,25.47l8.4-23.94c0.04-0.14,0.11-0.35,0.21-0.63c0.46-1.3,0.69-2.2,0.69-2.68c0-0.82-0.37-1.46-1.11-1.93
			c-0.74-0.46-2.04-0.83-3.88-1.11v-3.13h14.12v3.13c-1.38,0.26-2.52,0.85-3.4,1.76c-0.88,0.91-1.7,2.36-2.44,4.35l-13.52,36.76
			H375.49z"/>
		<path d="M415.69,607.51c-1.83,1.71-3.66,3-5.5,3.87s-3.67,1.31-5.5,1.31c-2.51,0-4.58-0.77-6.2-2.32
			c-1.63-1.54-2.44-3.51-2.44-5.9c0-3.37,1.56-6,4.68-7.89s7.89-3.08,14.32-3.58v-4.43c0-2.79-0.43-4.7-1.29-5.74
			c-0.86-1.03-2.36-1.55-4.49-1.55c-0.94,0-1.77,0.15-2.47,0.44c-0.7,0.29-1.05,0.6-1.05,0.92c0,0.04,0.06,0.16,0.18,0.36
			c0.06,0.1,0.1,0.17,0.12,0.21l0.87,1.36c0.18,0.28,0.33,0.63,0.44,1.04c0.11,0.41,0.17,0.83,0.17,1.25c0,1.2-0.45,2.2-1.35,3
			c-0.9,0.79-2.08,1.19-3.52,1.19c-1.49,0-2.69-0.42-3.61-1.26c-0.92-0.84-1.38-1.95-1.38-3.31c0-2.29,1.21-4.17,3.64-5.66
			c2.43-1.49,5.58-2.23,9.45-2.23c4.7,0,8.16,0.98,10.39,2.95c2.23,1.97,3.34,5.04,3.34,9.21v15.54c0,0.56,0.1,0.98,0.3,1.25
			c0.2,0.27,0.51,0.41,0.93,0.41c0.28,0,0.68-0.11,1.19-0.33s0.86-0.33,1.04-0.33c0.24,0,0.46,0.11,0.65,0.32
			c0.19,0.21,0.29,0.45,0.29,0.71c0,0.88-0.74,1.79-2.23,2.71s-3.07,1.38-4.76,1.38c-1.55,0-2.82-0.39-3.82-1.17
			C417.06,610.43,416.27,609.19,415.69,607.51z M415.05,595.61c-3.19,0.46-5.57,1.3-7.14,2.51s-2.35,2.81-2.35,4.8
			c0,1.37,0.38,2.44,1.14,3.22c0.76,0.78,1.82,1.17,3.16,1.17c1.81,0,3.14-0.71,4-2.12c0.86-1.42,1.29-3.61,1.29-6.58
			c0-0.34,0-0.71-0.01-1.11C415.15,597.11,415.11,596.48,415.05,595.61z"/>
		<path d="M434.47,572.34c0-1.44-0.25-2.42-0.74-2.94c-0.49-0.51-1.42-0.79-2.79-0.83v-2.8c1.95-0.08,3.99-0.24,6.14-0.48
			s4.5-0.58,7.05-1.02v40.25c0,1.57,0.23,2.63,0.68,3.19c0.45,0.56,1.32,0.94,2.6,1.14v2.83h-16.17v-2.83
			c1.28-0.2,2.14-0.57,2.57-1.11s0.65-1.62,0.65-3.22V572.34z"/>
		<path d="M481.44,595.1h-19.42c-0.02,0.28-0.04,0.59-0.05,0.92s-0.01,0.81-0.01,1.43c0,4.05,0.56,7.04,1.69,8.96
			c1.12,1.92,2.88,2.88,5.27,2.88c1.85,0,3.57-0.62,5.18-1.85c1.61-1.23,2.99-3,4.15-5.28l2.89,1.02c-1.26,3.17-3.1,5.55-5.51,7.14
			c-2.41,1.58-5.38,2.38-8.91,2.38c-2.07,0-4-0.36-5.81-1.08c-1.81-0.72-3.41-1.76-4.82-3.1c-1.65-1.61-2.9-3.5-3.76-5.68
			c-0.86-2.18-1.29-4.56-1.29-7.15c0-5.06,1.46-9.17,4.38-12.34c2.92-3.17,6.69-4.76,11.31-4.76c4.42,0,7.97,1.47,10.67,4.4
			c2.7,2.93,4.05,6.83,4.05,11.71V595.1z M461.96,592.27h9.3v-0.57c0-3.71-0.36-6.36-1.07-7.93c-0.71-1.58-1.9-2.36-3.57-2.36
			c-1.63,0-2.79,0.78-3.48,2.33S462.06,588.14,461.96,592.27z"/>
	</g>
</g>
</svg>
